<?xml version="1.0" encoding="UTF-8"?>
<svg version="1.1" xmlns="http://www.w3.org/2000/svg" width="750" height="647">
<path d="M0 0 C2.64 0 5.28 0 8 0 C19.43477683 26.7500695 30.80016739 53.52524424 41.87231445 80.42770386 C44.04712431 85.70685639 46.2430099 90.9767794 48.45211792 96.2416687 C49.96656177 99.8544983 51.47263775 103.47078248 52.97741699 107.08764648 C53.6933675 108.80306037 54.41293858 110.51696823 55.13635254 112.22924805 C56.13323967 114.59029035 57.1168567 116.95645743 58.09765625 119.32421875 C58.54157463 120.36191658 58.54157463 120.36191658 58.99446106 121.420578 C60.63778448 125.43193611 61.45261314 128.6687383 61 133 C57.38317247 139.67722005 52.69533998 144.91474169 45.3984375 147.375 C43 148 43 148 39.9140625 148.5625 C31.48806186 150.13378217 26.77799728 152.66932472 21 159 C19.8553125 160.175625 19.8553125 160.175625 18.6875 161.375 C8.99668589 176.44959972 13.26631822 196.30441937 14.4609375 213.33984375 C14.61336926 215.55984093 14.7655144 217.77985781 14.91738892 219.99989319 C15.23488978 224.6216911 15.55645261 229.24318382 15.88085938 233.86450195 C16.29501114 239.77027542 16.69790522 245.67675592 17.09767723 251.58351803 C17.40853068 256.1556035 17.72581442 260.72722582 18.04497147 265.29873848 C18.19615521 267.47657481 18.34525282 269.65455705 18.49216843 271.83268547 C18.69830064 274.8758578 18.91323418 277.91828903 19.13037109 280.96069336 C19.18863571 281.84762375 19.24690033 282.73455414 19.30693054 283.64836121 C20.06566369 293.97526282 21.69442585 302.24422695 29 310 C32.60954587 312.68117764 36.43626469 314.71346906 40.4375 316.75 C42.69263881 317.95342227 44.94651579 319.15921169 47.19921875 320.3671875 C48.33794434 320.97014648 49.47666992 321.57310547 50.64990234 322.19433594 C55.7648261 324.95122095 60.75317433 327.91108897 65.75 330.875 C76.32699555 337.10468623 87.04980133 343.05062839 97.82128906 348.93505859 C98.42620682 349.26615128 99.03112457 349.59724396 99.65437317 349.93836975 C101.30372401 350.84058503 102.95443193 351.74031815 104.60522461 352.63989258 C107 354 107 354 108 355 C108.09334238 357.83319453 108.1223621 360.64262161 108.11010742 363.47607422 C108.11065044 365.320872 108.11123747 367.16566977 108.11186218 369.01046753 C108.11043402 369.99461514 108.10900585 370.97876274 108.10753441 371.992733 C108.1040226 377.19833322 108.12982415 382.40382434 108.15039062 387.609375 C108.17467651 394.23674468 108.1904959 400.86380314 108.17504883 407.49121094 C108.16334219 412.84189371 108.18091317 418.19180039 108.21749306 423.54236221 C108.22607635 425.57632912 108.22407755 427.6103709 108.210989 429.64431381 C108.08038439 446.64157541 108.08038439 446.64157541 116.77748108 460.86552429 C118.4371354 462.40588706 120.14292212 463.70598813 122 465 C122.60682617 465.43006348 123.21365234 465.86012695 123.83886719 466.30322266 C125.83015209 467.67382743 127.84725451 468.99648436 129.875 470.3125 C131.47993461 471.36862559 133.08405572 472.42598812 134.6875 473.484375 C135.97333984 474.33225586 135.97333984 474.33225586 137.28515625 475.19726562 C142.17604354 478.44495553 147.02383631 481.75589433 151.875 485.0625 C154.01301076 486.51824396 156.15103182 487.9739728 158.2890625 489.4296875 C159.39355898 490.18195984 160.49805112 490.93423856 161.60253906 491.68652344 C170.39358231 497.67344473 179.19018285 503.65209816 187.99972534 509.61177063 C191.72560998 512.13330284 195.4422091 514.66809842 199.15625 517.20703125 C201.02054826 518.47177448 202.88511459 519.7361227 204.75 521 C205.57661133 521.56936279 206.40322266 522.13872559 207.25488281 522.7253418 C216.25168567 528.79006757 224.04403129 531.13656611 235 530 C242.39510537 528.39932784 247.15289033 524.46840655 252.53515625 519.32421875 C258.71104204 513.50068144 263.67679403 508.879279 272.3125 508.625 C273.44300781 508.57601563 274.57351563 508.52703125 275.73828125 508.4765625 C282.57779086 509.57416045 286.54336113 517.0771163 290.5625 522.3125 C291.48603271 523.50782349 291.48603271 523.50782349 292.42822266 524.72729492 C296.77453787 530.3669831 301.06612763 536.0464988 305.32299805 541.75390625 C309.46556176 547.30538977 313.66713711 552.81041112 317.875 558.3125 C323.56332691 565.75662471 329.16200975 573.25920002 334.69726562 580.81762695 C339.18640197 586.93273462 343.76787031 592.97344272 348.375 599 C349.71623623 600.76164993 351.05738564 602.52336597 352.3984375 604.28515625 C354.51047689 607.05782575 356.635942 609.81774693 358.7890625 612.55859375 C359.51867187 613.50863281 360.24828125 614.45867188 361 615.4375 C361.8971875 616.58025391 361.8971875 616.58025391 362.8125 617.74609375 C364.33996839 620.64526895 364.29072871 622.77018573 364 626 C361.81016859 628.18983141 357.56077521 627.29569256 354.61822796 627.30250072 C343.10028364 627.11969171 331.68152668 625.16792101 320.30121827 623.52993417 C317.55766372 623.13609118 314.81322611 622.74858946 312.06881636 622.36075848 C305.59827607 621.44593095 299.12958682 620.51875766 292.66186523 619.58422852 C286.00578972 618.62276758 279.34661227 617.68543777 272.68556482 616.7591098 C266.93780729 615.95876508 261.19250055 615.14224489 255.44883651 614.31303567 C252.0301898 613.81973839 248.61093777 613.33285193 245.18909645 612.8621769 C241.38530934 612.3382592 237.58687106 611.78072021 233.78833008 611.2199707 C232.66260086 611.06963379 231.53687164 610.91929687 230.37702942 610.7644043 C221.90037438 609.46834762 221.90037438 609.46834762 218.8006897 606.51303101 C216.80398171 603.72643813 216.38660659 602.43884423 216.44140625 599.05078125 C216.44849609 598.11943359 216.45558594 597.18808594 216.46289062 596.22851562 C216.49576172 595.26623047 216.52863281 594.30394531 216.5625 593.3125 C216.56830078 592.36955078 216.57410156 591.42660156 216.58007812 590.45507812 C216.67603402 584.87044495 217.37871245 579.71494137 218.56298828 574.26586914 C219.68956564 568.42465996 218.84258373 563.51592207 217.1875 557.875 C216.85105469 556.69679688 216.51460937 555.51859375 216.16796875 554.3046875 C213.45192118 546.61981712 209.93472169 544.45593887 202.8515625 540.95703125 C201.36567123 540.20254448 201.36567123 540.20254448 199.84976196 539.43281555 C196.91585854 537.94833874 193.97550741 536.47808312 191.03187561 535.01306915 C188.09513584 533.54884543 185.16335162 532.07480376 182.2311058 530.60160637 C170.95802416 524.93891914 159.66715436 519.31202727 148.375 513.6875 C142.08642312 510.55512705 135.79856319 507.4213304 129.51237869 504.28415871 C127.0358099 503.04905868 124.55803031 501.81641381 122.08016968 500.58390808 C114.16728371 496.63933174 106.32515369 492.61982286 98.60293579 488.31208801 C96.3547579 487.17882638 94.45867152 486.4662103 92 486 C92 486.66 92 487.32 92 488 C91.36835938 488.35078613 90.73671875 488.70157227 90.0859375 489.06298828 C77.40691645 496.11272495 64.7876307 503.24442481 52.27368164 510.58398438 C44.19240497 515.31888477 36.07271946 519.98364798 27.9375 524.625 C27.33795502 524.96706482 26.73841003 525.30912964 26.12069702 525.66156006 C23.34495742 527.24486708 20.56793783 528.82545815 17.78466797 530.39550781 C16.14190641 531.34204726 14.51332797 532.3154504 12.92236328 533.34667969 C9.46914253 535.56959922 6.40796495 536.7542516 2.24609375 536.51660156 C-2.78696122 535.35899892 -7.10275571 532.4881685 -11.5 529.875 C-12.59658936 529.24190918 -13.69317871 528.60881836 -14.82299805 527.95654297 C-18.22519506 525.98742729 -21.61314236 523.99535799 -25 522 C-26.99531733 520.83720833 -28.99138013 519.67569466 -30.98828125 518.515625 C-34.89767127 516.24187955 -38.80170164 513.95925854 -42.703125 511.671875 C-49.79498933 507.52397485 -56.92647979 503.44628314 -64.0625 499.375 C-64.66204498 499.03293518 -65.26158997 498.69087036 -65.87930298 498.33843994 C-68.64710807 496.75965884 -71.41543332 495.18179338 -74.18408203 493.60449219 C-77.45770391 491.73920322 -80.72926612 489.8703471 -84 488 C-84 487.34 -84 486.68 -84 486 C-91.86082158 488.9143051 -99.18478868 492.57486893 -106.58984375 496.48828125 C-109.17313522 497.84153823 -111.75954322 499.18874081 -114.34716797 500.53369141 C-115.37578556 501.06832961 -115.37578556 501.06832961 -116.4251833 501.61376858 C-125.14866957 506.13291858 -133.95300854 510.48965077 -142.75390625 514.85546875 C-144.46811066 515.70715965 -146.18225232 516.55897686 -147.89633179 517.41091919 C-154.91686596 520.89930292 -161.93852498 524.38536555 -168.96606445 527.85961914 C-173.34065566 530.02268626 -177.71131989 532.19351116 -182.07951164 534.3694706 C-183.72426602 535.18692115 -185.37047399 536.00145417 -187.01819038 536.81291771 C-189.29783946 537.93589441 -191.57235209 539.06868554 -193.84594727 540.20385742 C-194.51536346 540.53058945 -195.18477966 540.85732147 -195.8744812 541.19395447 C-203.36571023 544.96406166 -206.16261893 549.39180121 -209 557 C-211.20015657 563.69935314 -211.57656132 569.65721352 -210.01171875 576.51953125 C-208.86692198 582.1377626 -208.59770088 587.5904021 -208.5625 593.3125 C-208.52962891 594.27478516 -208.49675781 595.23707031 -208.46289062 596.22851562 C-208.45580078 597.15986328 -208.44871094 598.09121094 -208.44140625 599.05078125 C-208.42122437 600.29855347 -208.42122437 600.29855347 -208.40063477 601.5715332 C-209.27315197 605.10673835 -211.00148191 607.07203554 -214 609 C-217.86446379 610.18537037 -221.78848039 610.68580578 -225.78833008 611.2199707 C-226.98255585 611.39626511 -228.17678162 611.57255951 -229.40719604 611.75419617 C-232.67671234 612.23226053 -235.94781015 612.69143769 -239.22120118 613.14169335 C-242.66300825 613.61904598 -246.10160798 614.11853712 -249.54069519 614.61503601 C-255.32651361 615.44694058 -261.11445239 616.262488 -266.90405273 617.06762695 C-273.55894842 617.99323063 -280.21037081 618.94102654 -286.86026269 619.9018777 C-293.28994214 620.8306481 -299.72140608 621.74639673 -306.15390587 622.65541649 C-308.87368039 623.03979951 -311.59287017 623.42798044 -314.31165504 623.8192997 C-343.61208809 628.01179772 -343.61208809 628.01179772 -355 627 C-356 626 -356 626 -356.28125 623.25390625 C-355.94180754 619.32674557 -354.96176591 617.98255746 -352.5 614.9375 C-351.66999897 613.8858694 -350.84062296 612.83374533 -350.01171875 611.78125 C-349.53911621 611.19085937 -349.06651367 610.60046875 -348.57958984 609.9921875 C-345.43046353 606.02049187 -342.38103132 601.97154793 -339.3125 597.9375 C-338.6215625 597.03249756 -337.930625 596.12749512 -337.21875 595.19506836 C-332.75368994 589.33881901 -328.352139 583.44052914 -324 577.5 C-317.13563238 568.13469913 -310.10639771 558.90015255 -303.04980469 549.67919922 C-299.61181218 545.18556775 -296.18055165 540.68681307 -292.75 536.1875 C-291.76 534.89078369 -291.76 534.89078369 -290.75 533.56787109 C-287.60941229 529.4489778 -284.48506033 525.31968304 -281.3984375 521.16015625 C-280.84317383 520.41290283 -280.28791016 519.66564941 -279.71582031 518.89575195 C-278.68286196 517.50246297 -277.65335647 516.106605 -276.62792969 514.70776367 C-273.21974521 510.10987261 -273.21974521 510.10987261 -271 509 C-263.30383611 508.12769448 -257.36112295 508.27336332 -251.11328125 513.08203125 C-248.00290095 515.90494571 -245.11190312 518.92470357 -242.19921875 521.94921875 C-239.11503012 524.82523834 -235.89322627 526.47277912 -232 528 C-231.22527344 528.35449219 -230.45054687 528.70898438 -229.65234375 529.07421875 C-226.58153844 530.14606096 -224.06237306 530.33541568 -220.8125 530.375 C-219.76707031 530.40335938 -218.72164062 530.43171875 -217.64453125 530.4609375 C-209.22365092 529.39591726 -202.40597557 525.30879384 -195.625 520.4375 C-193.96428231 519.273682 -192.30277324 518.11099275 -190.640625 516.94921875 C-189.74279297 516.31806152 -188.84496094 515.6869043 -187.91992188 515.03662109 C-183.03493406 511.62938293 -178.09849191 508.29814044 -173.1652832 504.96133423 C-170.1553042 502.92473433 -167.14811872 500.88401733 -164.140625 498.84375 C-163.2439209 498.23561211 -163.2439209 498.23561211 -162.32910156 497.6151886 C-155.23376272 492.80301228 -148.14026255 487.98808569 -141.05712891 483.15795898 C-135.96337781 479.6854686 -130.85808231 476.23288866 -125.7265625 472.81640625 C-124.72093262 472.14254883 -123.71530273 471.46869141 -122.67919922 470.77441406 C-120.78731136 469.50726863 -118.89079714 468.24699106 -116.98876953 466.99511719 C-109.50615511 461.96495562 -104.18805417 456.60701657 -101 448 C-100.54741098 444.8874884 -100.64229648 441.88110381 -100.78735352 438.74511719 C-100.81074799 437.85614243 -100.83414246 436.96716766 -100.85824585 436.05125427 C-100.90892574 434.13318747 -100.96768612 432.21532028 -101.03375435 430.29772186 C-101.16354839 426.20435076 -101.21645455 422.11110167 -101.27370358 418.01617813 C-101.3801434 410.40794793 -101.51406292 402.80382166 -101.79174805 395.19970703 C-103.03269627 359.84645944 -103.03269627 359.84645944 -98.08404541 351.93817139 C-93.31229755 347.41752311 -87.89602421 345.4271017 -81.6244812 343.76171875 C-77.85932831 342.66893609 -75.02338727 340.90065185 -71.703125 338.8203125 C-69.55219935 337.5883391 -67.40115848 336.35656682 -65.25 335.125 C-64.67779724 334.79737671 -64.10559448 334.46975342 -63.51605225 334.13220215 C-56.98329377 330.39363596 -50.44028865 326.67506088 -43.8671875 323.0078125 C-42.73249023 322.37472168 -41.59779297 321.74163086 -40.42871094 321.08935547 C-38.28491226 319.89578621 -36.1398047 318.70456368 -33.99316406 317.51611328 C-20.86586416 310.38760669 -20.86586416 310.38760669 -13 298 C-12.37501487 294.80642271 -12.12402807 291.61548966 -11.89111328 288.37231445 C-11.77626933 286.99118328 -11.77626933 286.99118328 -11.6591053 285.58215046 C-11.42532621 282.72233846 -11.21093997 279.86157816 -11 277 C-10.86741249 275.29369993 -10.73443145 273.58743038 -10.60101318 271.88119507 C-10.20745813 266.74924279 -9.84747939 261.61519146 -9.4921875 256.48046875 C-9.36059764 254.59824623 -9.22893291 252.71602894 -9.09719849 250.83381653 C-8.82475815 246.93076433 -8.55450693 243.02756779 -8.28564453 239.12426758 C-7.9438784 234.16784205 -7.59451792 229.21198321 -7.24328423 224.25622082 C-6.97008572 220.38446409 -6.70197314 216.51236681 -6.435215 212.64016151 C-6.30862575 210.81393386 -6.18029625 208.98782582 -6.05004501 207.1618557 C-3.26847355 181.04465874 -3.26847355 181.04465874 -13.875 158.0625 C-20.35393137 151.31912245 -26.02303611 149.6340242 -34.98046875 147.69921875 C-41.97412254 146.079731 -46.47480891 142.42323159 -51 137 C-53.58755893 132.53805274 -53.20902097 128.89149045 -52 124 C-50.24578442 119.15289559 -48.23803119 114.43649924 -46.17434692 109.71417236 C-44.7188247 106.38287418 -43.29001291 103.04031843 -41.85945129 99.69824219 C-41.09396523 97.91025513 -40.32716494 96.12283022 -39.55912781 94.3359375 C-35.52532931 84.93801916 -31.63622994 75.48189255 -27.75204468 66.02139282 C-18.68195188 43.93684891 -9.39333998 21.94875834 0 0 Z M-1.96484375 319.46875 C-7.29867467 323.28947642 -12.93652351 326.36608757 -18.699646 329.48959351 C-29.66760958 335.43858447 -40.51612711 341.56217753 -51.27001953 347.89135742 C-59.44268281 352.69624103 -67.68430442 357.3715431 -75.95654297 362.00268555 C-77.32190186 362.76899292 -77.32190186 362.76899292 -78.71484375 363.55078125 C-79.92321899 364.22620972 -79.92321899 364.22620972 -81.15600586 364.9152832 C-82.9510314 365.86737922 -82.9510314 365.86737922 -84 367 C-84.09536242 370.16612663 -84.12550636 373.31040628 -84.11352539 376.47680664 C-84.11367142 377.47181686 -84.11381744 378.46682709 -84.1139679 379.49198914 C-84.11326831 382.79806662 -84.10547379 386.10408854 -84.09765625 389.41015625 C-84.09579223 391.69559193 -84.09436825 393.98102801 -84.09336853 396.26646423 C-84.08954207 402.29498387 -84.0797107 408.32347959 -84.06866455 414.35198975 C-84.05845317 420.49832841 -84.0538715 426.64467093 -84.04882812 432.79101562 C-84.03808854 444.86068762 -84.0210106 456.93034182 -84 469 C-83.27713303 469.39396973 -82.55426605 469.78793945 -81.80949402 470.19384766 C-65.68321631 478.9858248 -49.59501591 487.83396961 -33.75 497.125 C-31.79948333 498.26563211 -29.84896251 499.40625714 -27.8984375 500.546875 C-24.87025205 502.31813523 -21.84376662 504.0920601 -18.82128906 505.87304688 C-15.67971334 507.71968738 -12.52855618 509.54891304 -9.375 511.375 C-8.42077148 511.94105957 -7.46654297 512.50711914 -6.48339844 513.09033203 C-5.58911133 513.60450684 -4.69482422 514.11868164 -3.7734375 514.6484375 C-2.99403809 515.10395996 -2.21463867 515.55948242 -1.41162109 516.02880859 C2.54958241 517.62403714 5.65257835 517.55189782 9.59521484 515.93701172 C10.45840332 515.43959473 11.3215918 514.94217773 12.2109375 514.4296875 C13.19578125 513.87023437 14.180625 513.31078125 15.1953125 512.734375 C16.24460937 512.12078125 17.29390625 511.5071875 18.375 510.875 C19.4784375 510.24335937 20.581875 509.61171875 21.71875 508.9609375 C25.154715 506.98858401 28.57862232 504.99753161 32 503 C33.53962402 502.1032959 33.53962402 502.1032959 35.11035156 501.18847656 C39.05887946 498.88742456 43.00557539 496.58332768 46.94750977 494.27099609 C61.80739548 485.56781983 76.87784981 477.2369771 92 469 C92.39460332 455.87466312 92.69628868 442.75074475 92.88080692 429.62067604 C92.96939178 423.52281278 93.08941517 417.42901735 93.2824707 411.33349609 C93.46777098 405.44570721 93.56893636 399.56181731 93.61291313 393.67133713 C93.64422872 391.42936145 93.70539632 389.18759024 93.79741096 386.9472847 C94.69338695 375.34839168 94.69338695 375.34839168 90.36156845 365.10423279 C86.33412399 361.85558073 81.91127337 359.77659023 77.12410831 357.88370991 C73.92139692 356.55126006 71.06303653 354.80533934 68.09375 353.015625 C65.89660754 351.75906198 63.69868022 350.50387038 61.5 349.25 C60.91481598 348.91571991 60.32963196 348.58143982 59.72671509 348.23703003 C50.04091097 342.70439931 40.31422041 337.24740842 30.56542969 331.82641602 C23.55930933 327.91661858 16.68159536 323.84621289 9.890625 319.57421875 C5.20770568 317.0239262 2.41043265 316.1231087 -1.96484375 319.46875 Z " fill="#ffc500" transform="translate(371,10)"/>
<path d="M0 0 C2.74707031 1.34423828 2.74707031 1.34423828 5.578125 3.0703125 C6.64337402 3.71194336 7.70862305 4.35357422 8.80615234 5.01464844 C9.36663269 5.35814331 9.92711304 5.70163818 10.50457764 6.05554199 C12.89316254 7.51907959 15.29435833 8.96132392 17.69503784 10.40490723 C18.94120438 11.15444356 20.1867433 11.90502429 21.43167114 12.65661621 C27.69906356 16.43677013 34.02913858 20.10300858 40.375 23.75 C41.81214355 24.57781982 41.81214355 24.57781982 43.27832031 25.42236328 C53.50517888 31.30544626 63.75479183 37.14895678 74 43 C74.20861112 54.76095789 74.36848503 66.52147518 74.46630955 78.28390694 C74.51326367 83.74592598 74.57693692 89.20667864 74.67895508 94.66796875 C74.77681115 99.93949677 74.830571 105.2098077 74.85389519 110.48217392 C74.87051391 112.49257447 74.90296897 114.50290898 74.95157051 116.51279068 C75.31664231 132.23673762 75.31664231 132.23673762 72.15951538 136.46479797 C69.81763575 138.0609791 67.66006604 139.04437352 65 140 C63.91525391 140.6612085 62.83050781 141.32241699 61.71289062 142.00366211 C60.70419922 142.58897705 59.69550781 143.17429199 58.65625 143.77734375 C58.09297501 144.10558136 57.52970001 144.43381897 56.94935608 144.77200317 C55.75191049 145.46960538 54.55378471 146.1660412 53.35501099 146.86135864 C50.1483788 148.72161151 46.94716203 150.59113124 43.74609375 152.4609375 C43.09704575 152.83990677 42.44799774 153.21887604 41.77928162 153.60932922 C35.34160076 157.37406574 28.95051837 161.21410725 22.5625 165.0625 C20.52616816 166.28146134 18.48971521 167.50022039 16.453125 168.71875 C13.13076862 170.70895382 9.82844678 172.72459672 6.546875 174.78125 C5.30225432 175.5419465 4.05747957 176.30239102 2.8125 177.0625 C1.80832031 177.69285156 0.80414063 178.32320312 -0.23046875 178.97265625 C-3.9246015 180.3429763 -5.38324 179.43352473 -9 178 C-10.81805523 177.04410667 -12.60697178 176.03128626 -14.3671875 174.97265625 C-15.91962158 174.04549805 -15.91962158 174.04549805 -17.50341797 173.09960938 C-18.61604004 172.42736328 -19.72866211 171.75511719 -20.875 171.0625 C-22.05449175 170.35552132 -23.23435057 169.64915474 -24.41455078 168.94335938 C-26.94052233 167.43216221 -29.46482125 165.91821886 -31.98828125 164.40283203 C-36.12925914 161.9190853 -40.28222702 159.45583046 -44.4375 156.99609375 C-45.14166046 156.57908707 -45.84582092 156.16208038 -46.57131958 155.73243713 C-49.34161993 154.09192508 -52.11200035 152.45154873 -54.88275146 150.8117981 C-80.14694177 135.85305823 -80.14694177 135.85305823 -82 134 C-82.09520906 131.16959328 -82.12553631 128.36365007 -82.11352539 125.53295898 C-82.11367142 124.64523804 -82.11381744 123.75751709 -82.1139679 122.84289551 C-82.11326843 119.89393716 -82.10547448 116.94504113 -82.09765625 113.99609375 C-82.09579219 111.95728083 -82.09436823 109.91846746 -82.09336853 107.87965393 C-82.08954241 102.50215426 -82.07971132 97.12468142 -82.06866455 91.74719238 C-82.05845245 86.26440799 -82.05387134 80.78161928 -82.04882812 75.29882812 C-82.03808914 64.53254027 -82.02101159 53.76627236 -82 43 C-81.30060806 42.60993774 -80.60121613 42.21987549 -79.88063049 41.81799316 C-76.65017414 40.01535666 -73.42078664 38.21081332 -70.19140625 36.40625 C-69.09171509 35.79297852 -67.99202393 35.17970703 -66.85900879 34.54785156 C-58.02161605 29.60686414 -49.29298426 24.49954249 -40.59375 19.3203125 C-33.37531266 15.02497981 -26.11304178 10.80503112 -18.85327148 6.58007812 C-17.90009033 6.02513672 -16.94690918 5.47019531 -15.96484375 4.8984375 C-15.1255835 4.41036621 -14.28632324 3.92229492 -13.42163086 3.41943359 C-10.94971576 2.01991549 -10.94971576 2.01991549 -8.56469727 0.25634766 C-5.18888146 -1.39733613 -3.57765196 -1.03624175 0 0 Z " fill="#ffc500" transform="translate(379,338)"/>
</svg>
